<svg xmlns="http://www.w3.org/2000/svg" xmlns:xlink="http://www.w3.org/1999/xlink" id="e8HtpL7Q02o1" shape-rendering="geometricPrecision" text-rendering="geometricPrecision" viewBox="0 0 1024 1024"><style>@keyframes e8HtpL7Q02o10_c_o{0%,50%{opacity:.8}13.333333%,63.333333%{opacity:0}30%,46.666667%,80%{opacity:1}}@keyframes e8HtpL7Q02o11_c_o{0%,50%{opacity:.4}56.666667%,6.666667%{opacity:0}23.333333%,40%,73.333333%{opacity:1}}@keyframes e8HtpL7Q02o12_c_o{0%,50%{opacity:0}16.666667%,33.333333%,66.666667%{opacity:1}}@keyframes e8HtpL7Q02o13_c_o{0%,50%{opacity:.4}10%,26.666667%,60%,76.666667%{opacity:1}30%,80%{opacity:.8}43.333333%{opacity:0}}@keyframes e8HtpL7Q02o14_c_o{0%,50%{opacity:.8}20%,3.333333%,53.333333%,70%{opacity:1}30%,80%{opacity:.4}36.666667%{opacity:0}}@keyframes e8HtpL7Q02o15_c_o{0%,13.333333%,46.666667%,63.333333%{opacity:1}30%,80%{opacity:0}}@keyframes e8HtpL7Q02o16_c_o{0%,40%,56.666667%,6.666667%{opacity:1}23.333333%,73.333333%{opacity:0}30%,80%{opacity:.4}}@keyframes e8HtpL7Q02o17_c_o{0%,33.333333%,50%{opacity:1}16.666667%,66.666667%{opacity:0}30%,80%{opacity:.8}}#e8HtpL7Q02o10{animation:e8HtpL7Q02o10_c_o 3000ms linear infinite normal forwards}#e8HtpL7Q02o11{animation:e8HtpL7Q02o11_c_o 3000ms linear infinite normal forwards}#e8HtpL7Q02o12{animation:e8HtpL7Q02o12_c_o 3000ms linear infinite normal forwards}#e8HtpL7Q02o13{animation:e8HtpL7Q02o13_c_o 3000ms linear infinite normal forwards}#e8HtpL7Q02o14{animation:e8HtpL7Q02o14_c_o 3000ms linear infinite normal forwards}#e8HtpL7Q02o15{animation:e8HtpL7Q02o15_c_o 3000ms linear infinite normal forwards}#e8HtpL7Q02o16{animation:e8HtpL7Q02o16_c_o 3000ms linear infinite normal forwards}#e8HtpL7Q02o17{animation:e8HtpL7Q02o17_c_o 3000ms linear infinite normal forwards}</style><rect id="e8HtpL7Q02o2" width="252.2" height="252.2" fill="#D00F1C" stroke="none" stroke-width="1" rx="0" ry="0" transform="matrix(1 0 0 1 65.650012 62.5)"/><rect id="e8HtpL7Q02o3" width="252.2" height="252.2" fill="#D00F1C" stroke="none" stroke-width="1" rx="0" ry="0" transform="matrix(1 0 0 1 385.950009 62.5)"/><rect id="e8HtpL7Q02o4" width="252.2" height="252.2" fill="#D00F1C" stroke="none" stroke-width="1" rx="0" ry="0" transform="matrix(1 0 0 1 706.149991 62.5)"/><rect id="e8HtpL7Q02o5" width="252.2" height="252.2" fill="#D00F1C" stroke="none" stroke-width="1" rx="0" ry="0" transform="matrix(1 0 0 1 706.149991 385.899994)"/><rect id="e8HtpL7Q02o6" width="252.2" height="252.2" fill="#D00F1C" stroke="none" stroke-width="1" rx="0" ry="0" transform="matrix(1 0 0 1 706.149991 709.299988)"/><rect id="e8HtpL7Q02o7" width="252.2" height="252.2" fill="#D00F1C" stroke="none" stroke-width="1" rx="0" ry="0" transform="matrix(1 0 0 1 385.950009 709.299988)"/><rect id="e8HtpL7Q02o8" width="252.2" height="252.2" fill="#D00F1C" stroke="none" stroke-width="1" rx="0" ry="0" transform="matrix(1 0 0 1 65.650012 709.299988)"/><rect id="e8HtpL7Q02o9" width="252.2" height="252.2" fill="#D00F1C" stroke="none" stroke-width="1" rx="0" ry="0" transform="matrix(1 0 0 1 65.650012 385.899994)"/><rect id="e8HtpL7Q02o10" width="252.2" height="252.2" fill="#424242" stroke="none" stroke-width="1" opacity=".8" rx="0" ry="0" transform="matrix(1 0 0 1 65.650012 385.899994)"/><rect id="e8HtpL7Q02o11" width="252.2" height="252.2" fill="#424242" stroke="none" stroke-width="1" opacity=".4" rx="0" ry="0" transform="matrix(1 0 0 1 65.650012 709.299988)"/><rect id="e8HtpL7Q02o12" width="252.2" height="252.2" fill="#424242" stroke="none" stroke-width="1" opacity="0" rx="0" ry="0" transform="matrix(1 0 0 1 385.950009 709.299988)"/><rect id="e8HtpL7Q02o13" width="252.2" height="252.2" fill="#424242" stroke="none" stroke-width="1" opacity=".4" rx="0" ry="0" transform="matrix(1 0 0 1 706.149991 709.299988)"/><rect id="e8HtpL7Q02o14" width="252.2" height="252.2" fill="#424242" stroke="none" stroke-width="1" opacity=".8" rx="0" ry="0" transform="matrix(1 0 0 1 706.149991 385.899994)"/><rect id="e8HtpL7Q02o15" width="252.2" height="252.2" fill="#424242" stroke="none" stroke-width="1" rx="0" ry="0" transform="matrix(1 0 0 1 706.149991 62.5)"/><rect id="e8HtpL7Q02o16" width="252.2" height="252.2" fill="#424242" stroke="none" stroke-width="1" rx="0" ry="0" transform="matrix(1 0 0 1 385.950009 62.5)"/><rect id="e8HtpL7Q02o17" width="252.2" height="252.2" fill="#424242" stroke="none" stroke-width="1" rx="0" ry="0" transform="matrix(1 0 0 1 65.650012 62.5)"/></svg>