<svg xmlns="http://www.w3.org/2000/svg" xmlns:svg="http://www.w3.org/2000/svg" xmlns:xlink="http://www.w3.org/1999/xlink" id="svg4220" x="0" y="0" version="1.1" viewBox="0 0 1786 879.6" xml:space="preserve" style="enable-background:new 0 0 1786 879.6"><style type="text/css">.st0{fill:url(#SVGID_1_)}.st1{fill:#d00f1c}</style><g><linearGradient id="SVGID_1_" x1="1514.382" x2="1514.382" y1="381.001" y2="793.101" gradientTransform="matrix(1 0 0 -1 0 1103.3005)" gradientUnits="userSpaceOnUse"><stop offset="0" style="stop-color:#e70512"/><stop offset="1" style="stop-color:#c51725"/></linearGradient><polygon points="1722.6 486 1674.7 367.3 1559.7 310.2 1498.3 311.1 1498.3 311.1 1417 311.1 1416.4 311.6 1306.1 311.9 1306.1 416.8 1306.5 416.8 1306.1 417.2 1306.1 722.3 1417 722.3 1417 417.9 1461.6 417.6 1516.2 418 1563.2 440.4 1589.7 453.7 1603.8 486.8 1591.1 519.8 1517.4 554.6 1476.3 662.6 1559.7 662.6 1674.7 605.5 1722.6 486.8 1722.4 486.2" class="st0"/><polygon points="1724.3 801 1586.8 800.9 1485.5 676 1475.6 664.3 1516.6 554.5" class="st1"/><rect width="110.9" height="489.1" x="1306.1" y="311.8" class="st1"/></g><polygon points="546.3 122.8 546.3 233.7 657.2 124.5 657.2 25.1" class="st1"/><rect width="110.9" height="489.1" x="546.3" y="310.6" class="st1"/><g id="g3616_6_" transform="matrix(9.7765667,0,0,-9.7765667,-5642.9301,4389.3906)"><g id="g3618_6_"><g id="g3624_6_"><g id="g3626_6_"><linearGradient id="path3634_00000040532898853679166860000014196509690742938028_" x1="603.007" x2="482.075" y1="373.408" y2="639.539" gradientUnits="userSpaceOnUse"><stop offset="0" style="stop-color:#e70512"/><stop offset="1" style="stop-color:#c51725"/></linearGradient><path id="path3634_6_" d="M594.7,409.4l-11.3-10l14.3-32.2h15.6L594.7,409.4z" style="fill:url(#path3634_00000040532898853679166860000014196509690742938028_)"/></g></g></g></g><g id="g3616_5_" transform="matrix(9.7765667,0,0,-9.7765667,-5642.9301,4389.3906)"><g id="g3618_5_"><g id="g3624_5_"><g id="g3626_5_"><path id="path3634_5_" d="M611.7,419.4l-14.1-52.2h15.6l12.3,64.7L611.7,419.4 L611.7,419.4z" class="st1"/></g></g></g></g><g id="g3680_6_"><g id="g3686_6_"><g id="g3688_6_"><linearGradient id="path3696_00000144324509343107593500000002728029116130979512_" x1="961.742" x2="958.61" y1="746.916" y2="321.728" gradientUnits="userSpaceOnUse"><stop offset="0" style="stop-color:#e70512"/><stop offset="1" style="stop-color:#c51725"/></linearGradient><path id="path3696_6_" d="M919.9,698.6L874.8,678l0,0l-15.5-53.8l0,0l0.3-313.6H748.7v310.5l40.4,140.4l0,0l118.7,47.9l0,0h147.1l119-47.9l0,0L919.9,698.6 z" style="fill:url(#path3696_00000144324509343107593500000002728029116130979512_)"/></g></g></g><g id="g3680_5_"><g id="g3686_5_"><g id="g3688_5_"><path id="path3696_5_" d="M1104.1,310.6v313.3l-15.3,54.1l0,0l-55.6,20.6l0,0 l-55.5,14.3L874.8,678l-126.1-56.8l40.4,140.4l118.7,47.9l0,0h147.1l119-47.9l0,0l41-139.8l0,0V310.6H1104.1L1104.1,310.6 L1104.1,310.6z" class="st1"/></g></g></g></svg>